<svg width="18" height="18" viewBox="0 0 18 18" fill="none" xmlns="http://www.w3.org/2000/svg">
<g clip-path="url(#clip0_471_2769)">
<path d="M8.99906 0C4.03022 0 0 4.03022 0 9.00095C0 13.9717 4.03022 18.0019 8.99906 18.0019C13.9679 18.0019 18 13.9717 18 9.00095C18 4.03022 13.9698 0 8.99906 0Z" fill="white"/>
<path d="M3.19712 3.19737C4.74952 1.64685 6.80807 0.793213 8.99882 0.793213C11.1896 0.793213 13.2519 1.64685 14.8024 3.19737C16.2094 4.60247 17.0328 6.42494 17.1745 8.38717H12.8534C12.7269 7.57886 12.3473 6.83098 11.758 6.24175C11.0196 5.50709 10.0394 5.09916 8.99882 5.09916C7.05736 5.09916 5.44452 6.52504 5.14612 8.38717H0.821289C0.968598 6.42494 1.79579 4.60058 3.19712 3.19737Z" fill="#E60012"/>
<path d="M8.99906 0C4.03022 0 0 4.03022 0 9.00095C0 13.9717 4.03022 18.0019 8.99906 18.0019C13.9679 18.0019 18 13.9717 18 9.00095C18 4.03022 13.9698 0 8.99906 0ZM3.19736 3.19736C4.74976 1.64684 6.80831 0.793201 8.99906 0.793201C11.1898 0.793201 13.2521 1.64684 14.8026 3.19736C16.2096 4.60246 17.0331 6.42493 17.1747 8.38716H12.8536C12.7271 7.57885 12.3475 6.83097 11.7583 6.24174C11.0198 5.50708 10.0397 5.09915 8.99906 5.09915C7.0576 5.09915 5.44476 6.52502 5.14636 8.38716H0.82153C0.968839 6.42493 1.79603 4.60057 3.19736 3.19736ZM11.6752 9.00095C11.6752 10.4759 10.4759 11.6752 9.00094 11.6752C8.28518 11.6752 7.61473 11.3957 7.11426 10.8914C6.60812 10.389 6.33617 9.71483 6.33617 9.00095C6.33617 8.28706 6.60812 7.61662 7.11426 7.11048C7.61473 6.60623 8.28518 6.32861 9.00094 6.32861C9.71671 6.32861 10.3853 6.60434 10.8914 7.11048C11.3975 7.61662 11.6752 8.28706 11.6752 9.00095ZM9.00094 17.2068C6.8102 17.2068 4.75165 16.3532 3.19924 14.8045C1.79792 13.3994 0.970727 11.5751 0.823418 9.61473H5.15014C5.27668 10.423 5.65817 11.169 6.24363 11.7564C6.98395 12.4948 7.96412 12.9009 9.00283 12.9009C10.0415 12.9009 11.0236 12.4967 11.762 11.7564C12.3513 11.1671 12.7309 10.423 12.8574 9.61473H17.1785C16.8669 13.8508 13.322 17.2068 9.00283 17.2068H9.00094Z" fill="#0D131A"/>
<path d="M8.99935 10.5628C9.86054 10.5628 10.5631 9.86402 10.5631 9.00094C10.5631 8.13786 9.86054 7.43909 8.99935 7.43909C8.13816 7.43909 7.4375 8.13786 7.4375 9.00094C7.4375 9.86402 8.13816 10.5628 8.99935 10.5628Z" fill="#0D131A"/>
<path d="M8.99886 10.2058C9.66363 10.2058 10.2038 9.6676 10.2038 9.00093C10.2038 8.33426 9.66175 7.79602 8.99886 7.79602C8.33597 7.79602 7.79395 8.33426 7.79395 9.00093C7.79395 9.6676 8.33408 10.2058 8.99886 10.2058Z" fill="white"/>
</g>
<defs>
<clipPath id="clip0_471_2769">
<rect width="18" height="18" fill="white"/>
</clipPath>
</defs>
</svg>
